<?xml version="1.0" encoding="UTF-8"?>
<svg id="Layer_1" xmlns="http://www.w3.org/2000/svg" version="1.1" viewBox="0 0 296.7 57.7">
  <!-- Generator: Adobe Illustrator 29.8.2, SVG Export Plug-In . SVG Version: 2.1.1 Build 3)  -->
  <defs>
    <style>
      .st0 {
        fill: #231f20;
      }
    </style>
  </defs>
  <g>
    <path class="st0" d="M44.5,29.3c0-8.3,5.5-14.9,14.7-14.9s14.7,6.6,14.7,14.9-5.6,14.8-14.7,14.8-14.7-6.6-14.7-14.8ZM68.6,29.3c0-5.7-3.4-10.1-9.4-10.1s-9.4,4.4-9.4,10.1,3.5,10,9.4,10,9.4-4.4,9.4-10Z"/>
    <path class="st0" d="M79.6,43.4V15.2h5.3v5.2c1.5-3.6,5-5.9,9.9-5.9s10.5,4,10.5,11.6v17.4h-5.3v-15.1c0-6.3-2.1-9.3-7.1-9.3s-8,3.7-8,9.4v14.9s-5.3,0-5.3,0Z"/>
    <path class="st0" d="M110.7,29.3c0-8.3,5.5-14.9,14.7-14.9s14.7,6.6,14.7,14.9-5.6,14.8-14.7,14.8-14.7-6.6-14.7-14.8ZM134.8,29.3c0-5.7-3.4-10.1-9.4-10.1s-9.4,4.4-9.4,10.1,3.5,10,9.4,10,9.4-4.4,9.4-10Z"/>
    <path class="st0" d="M168,15.2h5.3v27.5c0,5.4-1.7,9.4-4.9,11.9-2.4,1.8-5.7,2.6-9.7,2.6s-7.5-.9-10-2.8c-2.5-1.8-4-4.4-4.2-7.5h5.6c.4,3.3,3.2,5.8,8.6,5.8s9.4-2.9,9.4-9.7v-4.6c-1.8,3.6-5.9,5.7-10,5.7-8.6,0-14-6.5-14-14.8s5.7-14.9,14.1-14.9,8.1,2.1,9.9,5.8v-5h-.1ZM168.2,29.3c0-5.6-3.6-10.1-9.6-10.1s-9.4,4.3-9.4,10.1,3.9,10,9.4,10,9.6-4.5,9.6-10Z"/>
    <path class="st0" d="M180.8,43.4V15.2h5.3v6.4c1.1-4.8,4.7-6.9,8.3-6.9s1.9,0,2.6.2v4.9c-.9-.2-1.7-.2-2.6-.2-5.6,0-8.2,5.1-8.2,11.4v12.3h-5.4Z"/>
    <path class="st0" d="M199,29.3c0-8.3,5.3-14.9,14.1-14.9s8.1,2.3,9.9,5.8v-5h5.3v28.2h-5.3v-5c-1.8,3.5-5.8,5.7-10,5.7-9,0-14-6.5-14-14.8ZM223.2,29.3c0-5.5-3.4-10.1-9.6-10.1s-9.4,4.3-9.4,10.1,3.6,10,9.4,10,9.6-4.6,9.6-10Z"/>
    <path class="st0" d="M265.2,29.3c0,8.6-5.8,14.8-14,14.8s-8.3-2.2-10.1-5.7v18h-5.3V15.1h5.3v5c1.8-3.6,5.9-5.8,10.4-5.8,8.1,0,13.7,6.1,13.7,14.9h0ZM259.8,29.3c0-5.9-3.9-10.1-9.4-10.1s-9.6,4.2-9.6,10.1,4,10,9.6,10,9.4-4.2,9.4-10Z"/>
    <path class="st0" d="M296.7,26v17.4h-5.3v-15.1c0-6.3-2-9.3-7.1-9.3s-8,3.7-8,9.4v14.9h-5.3V.5h5.3v19.8c1.5-3.6,5-5.9,9.9-5.9,7,0,10.5,4,10.5,11.6Z"/>
  </g>
  <path class="st0" d="M0,15.1v28.3h5.4v-22.3h7.5c2.2,0,4,1.8,4,4v18.3h5.4v-18.3c0-2.2,1.8-4,4-4h7.5v22.3h5.1V15.1H0Z"/>
</svg>